<?xml version="1.0" encoding="utf-8"?>
<!-- Generator: Adobe Illustrator 16.0.0, SVG Export Plug-In . SVG Version: 6.00 Build 0)  -->
<!DOCTYPE svg PUBLIC "-//W3C//DTD SVG 1.1//EN" "http://www.w3.org/Graphics/SVG/1.1/DTD/svg11.dtd">
<svg version="1.1" id="Layer_1" xmlns="http://www.w3.org/2000/svg" xmlns:xlink="http://www.w3.org/1999/xlink" x="0px" y="0px"
	 width="743.528px" height="296.412px" viewBox="0 0 743.528 296.412" enable-background="new 0 0 743.528 296.412"
	 xml:space="preserve">
<path opacity="0.5" fill="#7EAB8A" stroke="#FFFFFF" stroke-miterlimit="10" d="M707.5,28.998l-42-21c0,0-39,33-40,38l-52-10l-37,63
	l-32.486,23c0,0-27.514-6-52.514,0l-32-7l-24.899,39.599L336.5,297.912h407.027V28.998H707.5z"/>
<path opacity="0.5" fill="#27AAE1" stroke="#FFFFFF" stroke-miterlimit="10" d="M93.5,296.412l92-160.914l51,20l73-76l42,18
	c0,0,26-11,33-18s24-21,24-21l21,11l30-42l69,52l15,12l52,8l47,26l93,170.914H93.5z"/>
<path opacity="0.5" fill="#7EAB8A" stroke="#FFFFFF" stroke-miterlimit="10" d="M0,296.412l13.5-90.914l26-22l40-11l11-58l47-29
	l20,8l16-14h8l15-14l36,26l37,2l64,23c0,0,77,78,86,88s10,91.914,10,91.914H0z"/>
<g opacity="0.5">
	<path fill="#FFFFFF" d="M422.833,195.349c36-8.603,39.999-6.063,49.333,0s24.001,11.637,47.334,1.184s57.332,1.479,64.666,5.847
		s49.742,11.291,69.871-4.171c15.17-11.652,43.895-7.366,57.129-4.546l-6.666-21.164l-74-36c0,0-18,9-24,13s-58-2-58-2l-48,15
		l-86-20l-19.899,10.599l-37.8,20.133C372.045,184.768,398.86,201.077,422.833,195.349z"/>
	<path opacity="0.5" fill="#FFFFFF" d="M422.833,195.349c36-8.603,39.999-6.063,49.333,0s24.001,11.637,47.334,1.184
		s57.332,1.479,64.666,5.847s49.742,11.291,69.871-4.171c15.17-11.652,43.895-7.366,57.129-4.546l-6.666-21.164l-74-36
		c0,0-18,9-24,13s-58-2-58-2l-48,15l-86-20l-19.899,10.599l-37.8,20.133C372.045,184.768,398.86,201.077,422.833,195.349z"/>
</g>
<path opacity="0.5" fill="#FEC87E" stroke="#FFFFFF" stroke-miterlimit="10" d="M0,79.498l21.5,6c0,0,48,41,53,41s35,0,35,0
	s26,27,34,33s38,26,38,26l51,110.914H0V79.498z"/>
<path opacity="0.5" fill="#27AAE1" stroke="#FFFFFF" stroke-miterlimit="10" d="M704.5,172.498l-74-36c0,0-18,9-24,13s-58-2-58-2
	l-48,15l-86-20l-19.899,10.599L322.5,191.498l-24,81.914l-34,23h72h407.027L704.5,172.498z"/>
<polygon opacity="0.5" fill="#F58765" stroke="#FFFFFF" stroke-miterlimit="10" points="743.528,127.498 708.5,162.498 
	670.5,167.498 645.5,167.498 619.5,198.498 548.5,296.412 743.528,296.412 "/>
<polygon opacity="0.5" fill="#F58765" stroke="#FFFFFF" stroke-miterlimit="10" points="0,127.498 32.5,136.498 69.5,155.498 
	105.5,146.998 131.5,177.998 195.027,296.412 0,296.412 "/>
<polygon opacity="0.5" fill="#F58765" stroke="#FFFFFF" stroke-miterlimit="10" points="149.5,296.412 232.5,176.498 264.5,186.498 
	328.5,296.412 "/>
<polygon opacity="0.5" fill="#F58765" stroke="#FFFFFF" stroke-miterlimit="10" points="324.5,296.412 357.5,275.412 
	371.712,190.998 422.5,186.498 493.5,155.498 533.5,275.412 540.014,296.412 "/>
<g opacity="0.6">
	<path fill="#FFFFFF" stroke="#FFFFFF" stroke-miterlimit="10" d="M707.5,28.998l-42-21c0,0-39,33-40,38l-52-10l-8.954,15.246
		c0,0.001,8.288,23.502,26.954,17.502s28-4.039,32,0.98s26,25.857,51.333,9.771S715.5,85.49,715.5,85.49s13.547,8.833,28.027,7.139
		V28.998H707.5z"/>
	<path opacity="0.5" fill="#FFFFFF" d="M707.5,28.998l-42-21c0,0-39,33-40,38l-52-10l-8.954,15.246
		c0,0.001,8.288,23.502,26.954,17.502s28-4.039,32,0.98s26,25.857,51.333,9.771S715.5,85.49,715.5,85.49s13.547,8.833,28.027,7.139
		V28.998H707.5z"/>
</g>
<g opacity="0.5">
	<path fill="#FFFFFF" stroke="#FFFFFF" stroke-miterlimit="10" d="M429.5,69.498l-21-11c0,0-17,14-24,21
		c-4.593,4.593-17.366,10.908-25.607,14.708l0,0c2.608,4.54,7.941,16.878,26.608,11.042s41.333-10.902,52-5.702
		s34.667,6.319,38-7.24s20.358-17.389,28.513-12.808c4.828,2.713,13.809,1.247,19.916-3.444L459.5,27.498L429.5,69.498z"/>
	<path opacity="0.5" fill="#FFFFFF" d="M429.5,69.498l-21-11c0,0-17,14-24,21c-4.593,4.593-17.366,10.908-25.607,14.708l0,0
		c2.608,4.54,7.941,16.878,26.608,11.042s41.333-10.902,52-5.702s34.667,6.319,38-7.24s20.358-17.389,28.513-12.808
		c4.828,2.713,13.809,1.247,19.916-3.444L459.5,27.498L429.5,69.498z"/>
	<path fill="#FFFFFF" stroke="#FFFFFF" stroke-miterlimit="10" d="M328.5,102.746c5.522-3.679,11.073-6.506,15.914-8.285
		L309.5,79.498l-12.82,13.347l0,0C296.681,92.845,314.703,111.938,328.5,102.746z"/>
	<path opacity="0.5" fill="#FFFFFF" d="M328.5,102.746c5.522-3.679,11.073-6.506,15.914-8.285L309.5,79.498l-12.82,13.347l0,0
		C296.681,92.845,314.703,111.938,328.5,102.746z"/>
</g>
<g opacity="0.5">
	<path fill="#FFFFFF" d="M135.501,117.412c24-5.333,33.333-9.333,43.333-3.333s40,8,56.667,0
		c14.314-6.871,22.376-13.806,37.766-19.228l-3.767-1.354l-37-2l-36-26l-15,14h-8l-16,14l-20-8l-34.262,21.141
		C111.764,113.668,123.375,120.106,135.501,117.412z"/>
	<path opacity="0.5" fill="#FFFFFF" d="M135.501,117.412c24-5.333,33.333-9.333,43.333-3.333s40,8,56.667,0
		c14.314-6.871,22.376-13.806,37.766-19.228l-3.767-1.354l-37-2l-36-26l-15,14h-8l-16,14l-20-8l-34.262,21.141
		C111.764,113.668,123.375,120.106,135.501,117.412z"/>
</g>
<g opacity="0.5">
	<path fill="#FFFFFF" d="M708.5,162.498l-38,5h-25l-26,31l-5.186,7.153c5.393,8.35,16.188,17.407,36.52,10.804
		c34-11.043,40-11.957,48-4.5c5.363,4.998,29.295,8.287,44.693,5.448v-89.905L708.5,162.498z"/>
	<path opacity="0.5" fill="#FFFFFF" d="M708.5,162.498l-38,5h-25l-26,31l-5.186,7.153c5.393,8.35,16.188,17.407,36.52,10.804
		c34-11.043,40-11.957,48-4.5c5.363,4.998,29.295,8.287,44.693,5.448v-89.905L708.5,162.498z"/>
	<path fill="#FFFFFF" d="M47.501,187.955c27.333,14.124,50.141,13.209,55.737,0c2.879-6.795,15.568-9.804,28.663-9.21l-0.401-0.747
		l-26-31l-36,8.5l-37-19l-32.5-9v56.904C11.327,181.426,30.084,178.955,47.501,187.955z"/>
	<path opacity="0.5" fill="#FFFFFF" d="M47.501,187.955c27.333,14.124,50.141,13.209,55.737,0c2.879-6.795,15.568-9.804,28.663-9.21
		l-0.401-0.747l-26-31l-36,8.5l-37-19l-32.5-9v56.904C11.327,181.426,30.084,178.955,47.501,187.955z"/>
	<path fill="#FFFFFF" d="M228.167,216.455c7.337-5.624,28.991-9.415,49.671-7.051L264.5,186.498l-32-10l-27.486,39.71
		C214.738,219.284,223.495,220.036,228.167,216.455z"/>
	<path opacity="0.5" fill="#FFFFFF" d="M228.167,216.455c7.337-5.624,28.991-9.415,49.671-7.051L264.5,186.498l-32-10l-27.486,39.71
		C214.738,219.284,223.495,220.036,228.167,216.455z"/>
	<path fill="#FFFFFF" d="M422.5,186.498l-50.788,4.5l-7.441,44.201c12.812-3.266,24.267-9.002,29.897-13.787
		c13.332-11.333,28-21.581,44.666-9.457c13.9,10.111,58.863,17.109,75.342,5.525L493.5,155.498L422.5,186.498z"/>
	<path opacity="0.5" fill="#FFFFFF" d="M422.5,186.498l-50.788,4.5l-7.441,44.201c12.812-3.266,24.267-9.002,29.897-13.787
		c13.332-11.333,28-21.581,44.666-9.457c13.9,10.111,58.863,17.109,75.342,5.525L493.5,155.498L422.5,186.498z"/>
</g>
</svg>
